<svg width="32" height="39" viewBox="0 0 32 39" fill="none" xmlns="http://www.w3.org/2000/svg">
<rect x="1.375" y="4.875" width="29.25" height="29.25" rx="14.625" fill="#184C3C"/>
<path d="M15.8232 22.1504C16.7939 22.1505 17.581 22.9375 17.5811 23.9082V25.666H14.0654V23.9082C14.0655 22.9374 14.8524 22.1504 15.8232 22.1504ZM15.8232 12.25C16.6592 12.2501 17.4015 12.586 17.9121 12.8955C18.1712 13.0526 18.3818 13.2098 18.5283 13.3281C18.6017 13.3874 18.6606 13.4374 18.7012 13.4736C18.7214 13.4917 18.7376 13.5069 18.749 13.5176C18.7545 13.5227 18.7593 13.5271 18.7627 13.5303L18.7686 13.5361V13.5371H18.7695L26.1982 20.9658L25.8447 21.3193L23.3613 23.8037L23.0078 24.1562L22.6543 23.8047L15.8232 17.0098L9.03125 23.8037L8.67676 24.1572L8.32324 23.8037L5.83984 21.3193L5.48633 20.9658L12.9297 13.5225C12.9409 13.5117 12.9569 13.4975 12.9766 13.4795C13.0163 13.443 13.0727 13.3917 13.1445 13.332C13.2879 13.2131 13.4948 13.0563 13.75 12.8984C14.2529 12.5874 14.986 12.25 15.8232 12.25Z" fill="#00E751"/>
</svg>
