<svg width="130" height="39" viewBox="0 0 130 39" fill="none" xmlns="http://www.w3.org/2000/svg">
<rect x="3.67969" y="4.7478" width="28.4492" height="28.4492" rx="14.2246" fill="#184C3C"/>
<path d="M17.7314 21.5499C18.6757 21.5499 19.4414 22.3157 19.4414 23.2599V24.9698H16.0225V23.2599C16.0225 22.3158 16.7874 21.5501 17.7314 21.5499ZM17.7324 12.1749C18.4798 12.1751 19.1544 12.4774 19.6318 12.7667C19.8723 12.9125 20.0684 13.0586 20.2041 13.1681C20.2717 13.2227 20.3257 13.2683 20.3623 13.3009C20.3804 13.3171 20.3944 13.3308 20.4043 13.34C20.409 13.3443 20.4133 13.3482 20.416 13.3507L27.4639 20.3986L24.7207 23.1417L24.5566 22.9786L17.7324 16.1915L10.9463 22.9786L10.7822 23.1427L8.03809 20.3986L15.083 13.3536C15.0857 13.351 15.0899 13.3475 15.0947 13.3429C15.1044 13.3336 15.1179 13.3202 15.1357 13.3038C15.1715 13.271 15.2238 13.225 15.29 13.17C15.4225 13.0602 15.6134 12.9138 15.8496 12.7677C16.3186 12.4776 16.9844 12.1749 17.7324 12.1749Z" fill="#00E751"/>
<path d="M44.8799 14.6973C46.2141 14.6974 47.342 15.227 48.2637 16.2861C49.1991 17.3454 49.6669 18.6111 49.667 20.083C49.667 21.5551 49.1992 22.8215 48.2637 23.8809C47.342 24.94 46.2141 25.4696 44.8799 25.4697C44.2472 25.4697 43.6759 25.3461 43.167 25.0986C42.6581 24.8373 42.2934 24.541 42.0732 24.2109V29.5557H38.957V14.9238H42.0732V15.9561C42.2934 15.6259 42.658 15.3365 43.167 15.0889C43.6759 14.8276 44.2472 14.6973 44.8799 14.6973ZM77.6309 14.6973C78.9651 14.6974 80.093 15.227 81.0146 16.2861C81.9501 17.3454 82.4179 18.6111 82.418 20.083C82.418 21.5551 81.9502 22.8215 81.0146 23.8809C80.093 24.9399 78.9651 25.4696 77.6309 25.4697C76.9982 25.4697 76.4269 25.3461 75.918 25.0986C75.4091 24.8373 75.0444 24.541 74.8242 24.2109V29.5557H71.708V14.9238H74.8242V15.9561C75.0444 15.6259 75.409 15.3365 75.918 15.0889C76.4269 14.8276 76.9982 14.6973 77.6309 14.6973ZM64.3594 14.6973C65.8588 14.6973 67.138 15.2202 68.1973 16.2656C69.2565 17.2974 69.787 18.5698 69.7871 20.083C69.7871 21.5964 69.2566 22.8763 68.1973 23.9219C67.138 24.9536 65.8588 25.4697 64.3594 25.4697C62.8598 25.4697 61.5799 24.9537 60.5205 23.9219C59.4612 22.8763 58.9316 21.5963 58.9316 20.083C58.9317 18.5699 59.4613 17.2974 60.5205 16.2656C61.5799 15.22 62.8598 14.6973 64.3594 14.6973ZM97.3926 14.6973C98.892 14.6973 100.171 15.2202 101.23 16.2656C102.29 17.2974 102.82 18.5698 102.82 20.083C102.82 21.5964 102.29 22.8763 101.23 23.9219C100.171 24.9536 98.892 25.4697 97.3926 25.4697C95.893 25.4697 94.6131 24.9537 93.5537 23.9219C92.4944 22.8763 91.9648 21.5963 91.9648 20.083C91.9649 18.5699 92.4945 17.2974 93.5537 16.2656C94.6131 15.22 95.893 14.6973 97.3926 14.6973ZM120.894 14.6973C122.393 14.6973 123.673 15.22 124.732 16.2656C125.792 17.2973 126.321 18.5699 126.321 20.083C126.321 21.5963 125.792 22.8763 124.732 23.9219C123.673 24.9537 122.393 25.4697 120.894 25.4697C119.394 25.4697 118.114 24.9537 117.055 23.9219C115.995 22.8763 115.466 21.5963 115.466 20.083C115.466 18.5699 115.996 17.2973 117.055 16.2656C118.114 15.22 119.394 14.6973 120.894 14.6973ZM89.4639 9.6416C90.2068 9.6416 90.826 9.71685 91.3213 9.86816V12.6133C91.0324 12.4895 90.661 12.4277 90.207 12.4277C89.5742 12.4277 89.1199 12.5647 88.8447 12.8398C88.5696 13.115 88.4326 13.5625 88.4326 14.1816V14.9248H91.3213V17.6279H88.4326V25.2432H85.3164V17.6279H83.252V14.9248H85.3164V13.7891C85.3165 12.5235 85.7081 11.5192 86.4922 10.7764C87.2901 10.0197 88.2808 9.64164 89.4639 9.6416ZM113.534 25.2432H110.418V14.9248H113.534V25.2432ZM57.1855 14.7998C57.5433 14.7998 57.8808 14.8413 58.1973 14.9238V18.0811C57.7158 17.916 57.2546 17.834 56.8145 17.834C56.1542 17.834 55.638 18.0676 55.2666 18.5352C54.9089 18.9892 54.7295 19.5949 54.7295 20.3516V25.2422H51.6133V14.9238H54.7295V16.4717C54.8945 16.0041 55.2044 15.6123 55.6582 15.2959C56.1122 14.9657 56.6215 14.7998 57.1855 14.7998ZM107.853 25.2422H104.736V9.76465H107.853V25.2422ZM44.1777 17.5244C43.4761 17.5244 42.9051 17.7655 42.4648 18.2471C42.0385 18.7285 41.8253 19.3404 41.8252 20.083C41.8252 20.8259 42.0384 21.4384 42.4648 21.9199C42.9051 22.4014 43.4761 22.6426 44.1777 22.6426C44.8794 22.6426 45.4436 22.4015 45.8701 21.9199C46.3103 21.4384 46.5303 20.8258 46.5303 20.083C46.5302 19.3404 46.3101 18.7285 45.8701 18.2471C45.4436 17.7655 44.8794 17.5244 44.1777 17.5244ZM76.9287 17.5244C76.2271 17.5244 75.6561 17.7656 75.2158 18.2471C74.7895 18.7285 74.5763 19.3404 74.5762 20.083C74.5762 20.8259 74.7894 21.4384 75.2158 21.9199C75.6561 22.4014 76.2271 22.6426 76.9287 22.6426C77.6304 22.6426 78.1946 22.4015 78.6211 21.9199C79.0612 21.4384 79.2812 20.8259 79.2812 20.083C79.2812 19.3404 79.0611 18.7285 78.6211 18.2471C78.1946 17.7655 77.6304 17.5244 76.9287 17.5244ZM64.3594 17.6074C63.699 17.6074 63.1483 17.8341 62.708 18.2881C62.2817 18.742 62.0684 19.3403 62.0684 20.083C62.0684 20.8259 62.2815 21.4249 62.708 21.8789C63.1483 22.3329 63.699 22.5596 64.3594 22.5596C65.0196 22.5595 65.5628 22.3328 65.9893 21.8789C66.4295 21.4249 66.6494 20.8259 66.6494 20.083C66.6493 19.3403 66.4294 18.742 65.9893 18.2881C65.5628 17.8342 65.0196 17.6075 64.3594 17.6074ZM97.3926 17.6074C96.7322 17.6074 96.1815 17.8341 95.7412 18.2881C95.3149 18.742 95.1016 19.3404 95.1016 20.083C95.1016 20.8259 95.3148 21.4249 95.7412 21.8789C96.1815 22.3329 96.7322 22.5596 97.3926 22.5596C98.0528 22.5595 98.596 22.3328 99.0225 21.8789C99.4627 21.4249 99.6826 20.8259 99.6826 20.083C99.6825 19.3403 99.4626 18.742 99.0225 18.2881C98.596 17.8342 98.0528 17.6075 97.3926 17.6074ZM120.894 17.6074C120.233 17.6074 119.682 17.8341 119.242 18.2881C118.816 18.742 118.603 19.3404 118.603 20.083C118.603 20.8259 118.816 21.4249 119.242 21.8789C119.682 22.3329 120.233 22.5596 120.894 22.5596C121.554 22.5596 122.097 22.3328 122.523 21.8789C122.964 21.4249 123.185 20.8259 123.185 20.083C123.184 19.3403 122.964 18.742 122.523 18.2881C122.097 17.8342 121.554 17.6074 120.894 17.6074ZM111.966 9.6416C112.516 9.6416 112.977 9.83369 113.349 10.2188C113.734 10.5902 113.927 11.0445 113.927 11.5811C113.927 12.1176 113.734 12.5786 113.349 12.9639C112.977 13.3353 112.516 13.5215 111.966 13.5215C111.443 13.5214 110.99 13.3351 110.604 12.9639C110.219 12.5786 110.026 12.1176 110.026 11.5811C110.026 11.0445 110.219 10.5902 110.604 10.2188C110.99 9.83386 111.443 9.64166 111.966 9.6416Z" fill="#1F2122"/>
</svg>
